<?xml version="1.0" encoding="utf-8"?>
<!-- Generator: Adobe Illustrator 22.0.1, SVG Export Plug-In . SVG Version: 6.00 Build 0)  -->
<svg version="1.1" id="Layer_1" xmlns="http://www.w3.org/2000/svg" xmlns:xlink="http://www.w3.org/1999/xlink" x="0px" y="0px"
	 width="400px" height="400px" viewBox="0 0 400 400" style="enable-background:new 0 0 400 400;" xml:space="preserve">
<style type="text/css">
	.st0{fill:#FFFFFF;}
</style>
<rect x="40.3" y="33" class="st0" width="4" height="4"/>
<rect x="186.8" y="86.8" class="st0" width="4" height="4"/>
<rect x="157.5" y="275.3" class="st0" width="4" height="4"/>
<rect x="362.5" y="302.2" class="st0" width="4" height="4"/>
<rect x="391.8" y="113.8" class="st0" width="4" height="4"/>
<rect x="128.2" y="140.7" class="st0" width="4" height="4"/>
<rect x="303.9" y="329.2" class="st0" width="4" height="4"/>
<rect x="245.3" y="59.9" class="st0" width="4" height="4"/>
<rect x="69.6" y="221.5" class="st0" width="4" height="4"/>
<rect x="216.1" y="248.4" class="st0" width="4" height="4"/>
<rect x="333.2" y="167.6" class="st0" width="4" height="4"/>
<rect x="98.9" y="356.1" class="st0" width="4" height="4"/>
<rect x="11" y="383" class="st0" width="4" height="4"/>
<rect x="274.6" y="194.5" class="st0" width="4" height="4"/>
</svg>
