<?xml version="1.0" encoding="utf-8"?>
<!-- Generator: Adobe Illustrator 22.0.1, SVG Export Plug-In . SVG Version: 6.00 Build 0)  -->
<svg version="1.1" id="Layer_1" xmlns="http://www.w3.org/2000/svg" xmlns:xlink="http://www.w3.org/1999/xlink" x="0px" y="0px"
	 width="1000px" height="120px" viewBox="0 0 1000 120" style="enable-background:new 0 0 1000 120;" xml:space="preserve">
<style type="text/css">
	.st0{fill:#FFFFFF;}
</style>
<g>
	<path class="st0" d="M6.3,57.8l-5.4,0.9L0,53.3l5.4-0.9l5.4-0.9l0.9,5.4L6.3,57.8z M54,110.6l-5.4,0.9l-0.9-5.4l-5.4,0.9l0.9,5.4
		l0.9,5.4l-5.4,0.9l-0.9-5.4l-5.4,0.9l-0.9-5.4l-5.4,0.9l-5.4,0.9l-5.4,0.9l0.9,5.4l-5.4,0.9l-0.9-5.4l5.4-0.9l-0.9-5.4l5.4-0.9
		L19,99.9l5.4-0.9l-0.9-5.4l-0.9-5.4l-5.4,0.9l-5.4,0.9l-0.9-5.4l5.4-0.9l5.4-0.9l-0.9-5.4l-0.9-5.4L14.4,73L9,73.9l-0.9-5.4
		l5.4-0.9l5.4-0.9L18,61.3l-5.4,0.9l-0.9-5.4l5.4-0.9l5.4-0.9l5.4-0.9l0.9,5.4l0.9,5.4l0.9,5.4l0.9,5.4l0.9,5.4l0.9,5.4l0.9,5.4
		l0.9,5.4l0.9,5.4l0.9,5.4l5.4-0.9l-0.9-5.4l5.4-0.9l-0.9-5.4L45,90l-0.9-5.4l-0.9-5.4l-0.9-5.4l-0.9-5.4l-0.9-5.4l-0.9-5.4
		l-5.4,0.9l-0.9-5.4l5.4-0.9l5.4-0.9l5.4-0.9l0.9,5.4l0.9,5.4l0.9,5.4L53,72l0.9,5.4l0.9,5.4l0.9,5.4l0.9,5.4l0.9,5.4l0.9,5.4
		l5.4-0.9l0.9,5.4l-5.4,0.9l0.9,5.4l-5.4,0.9L54,110.6z M27.8,54.1l-0.9-5.4l5.4-0.9l0.9,5.4L27.8,54.1z M49.4,50.5l-0.9-5.4
		l5.4-0.9l0.9,5.4L49.4,50.5z M62.9,98l5.4-0.9l-0.9-5.4l-0.9-5.4L65.6,81l-0.9-5.4l-0.9-5.4l-0.9-5.4L62,59.4L61,54.1L55.7,55
		l-0.9-5.4l5.4-0.9l-0.9-5.4l5.4-0.9l5.4-0.9l0.9,5.4l5.4-0.9l0.9,5.4l-5.4,0.9l0.9,5.4l0.9,5.4l0.9,5.4l0.9,5.4l0.9,5.4l0.9,5.4
		l0.9,5.4l5.4-0.9l0.9,5.4l-5.4,0.9l-5.4,0.9l0.9,5.4l-5.4,0.9l-5.4,0.9L62.9,98z"/>
	<path class="st0" d="M94.7,43.1L94,37.7l5.4-0.7l0.7,5.4L94.7,43.1z M134.6,92.7l5.4-0.7l-0.7-5.4l5.4-0.7l-0.7-5.4l-0.7-5.4
		l-0.7-5.4l-0.7-5.4l-0.7-5.4l-5.4,0.7l-0.7-5.4l-5.4,0.7l0.7,5.4l-5.4,0.7l0.7,5.4l0.7,5.4l0.7,5.4l0.7,5.4l5.4-0.7l0.7,5.4
		l-5.4,0.7l0.7,5.4l-5.4,0.7l-5.4,0.7l-5.4,0.7l-5.4,0.7l-0.7-5.4l5.4-0.7l5.4-0.7l-0.7-5.4l-0.7-5.4l-0.7-5.4l-0.7-5.4l-0.7-5.4
		l-0.7-5.4l-0.7-5.4l-0.7-5.4l-5.4,0.7l-5.4,0.7l-0.7-5.4l5.4-0.7l5.4-0.7l-0.7-5.4l5.4-0.7l5.4-0.7l-0.7-5.4l5.4-0.7l5.4-0.7
		l5.4-0.7l0.7,5.4l-5.4,0.7l-5.4,0.7l0.7,5.4l-5.4,0.7l0.7,5.4l0.7,5.4l0.7,5.4l5.4-0.7l-0.7-5.4l5.4-0.7l-0.7-5.4l5.4-0.7l0.7,5.4
		l5.4-0.7l0.7,5.4l0.7,5.4l5.4-0.7l0.7,5.4l0.7,5.4l0.7,5.4l0.7,5.4l0.7,5.4l-5.4,0.7l0.7,5.4l-5.4,0.7l0.7,5.4l-5.4,0.7l-5.4,0.7
		L134.6,92.7z M103.7,108l-0.7-5.4l-0.7-5.4l5.4-0.7l0.7,5.4l5.4-0.7l0.7,5.4l-5.4,0.7L103.7,108z M130,98.8l5.4-0.7l0.7,5.4
		l-5.4,0.7L130,98.8z M131.6,71l-0.7-5.4l5.4-0.7l0.7,5.4l0.7,5.4l-5.4,0.7L131.6,71z M137.2,31.7l5.4-0.7l0.7,5.4l-5.4,0.7
		L137.2,31.7z"/>
	<path class="st0" d="M222,82l-5.4,0.6l-5.4,0.6l-5.4,0.6l-0.6-5.4l5.4-0.6l5.4-0.6l-0.6-5.4l-0.6-5.4l-5.4,0.6l-0.6-5.4l-0.6-5.4
		l-5.4,0.6l-5.4,0.6l-5.4,0.6l0.6,5.4l0.6,5.4l0.6,5.4l0.6,5.4l5.4-0.6l0.6,5.4l-5.4,0.6l-5.4,0.6l-5.4,0.6l-5.4,0.6l0.6,5.4
		l5.4-0.6l0.6,5.4l-5.4,0.6l-5.4,0.6l-0.6-5.4l-0.6-5.4l5.4-0.6l-0.6-5.4l5.4-0.6l-0.6-5.4l-0.6-5.4l5.4-0.6l-0.6-5.4l-0.6-5.4
		l-0.6-5.4l5.4-0.6l-0.6-5.4l-0.6-5.4l-0.6-5.4l5.4-0.6l-0.6-5.4l-5.4,0.6l-5.4,0.6l0.6,5.4l-5.4,0.6l-0.6-5.4l5.4-0.6l-0.6-5.4
		l5.4-0.6l5.4-0.6l-0.6-5.4l5.4-0.6L204,18l0.6,5.4l0.6,5.4l0.6,5.4l5.4-0.6l0.6,5.4l0.6,5.4L213,50l5.4-0.6l0.6,5.4l0.6,5.4
		l0.6,5.4l5.4-0.6l0.6,5.4l0.6,5.4l5.4-0.6l0.6,5.4l-5.4,0.6l0.6,5.4l-5.4,0.6L222,82z M201.6,45.8l-0.6-5.4l-0.6-5.4l-5.4,0.6
		l0.6,5.4l0.6,5.4l0.6,5.4l5.4-0.6L201.6,45.8z M231.7,69.9l5.4-0.6l0.6,5.4l-5.4,0.6L231.7,69.9z"/>
	<path class="st0" d="M245.9,29.8l5.4-0.4l0.4,5.4l-5.4,0.4L245.9,29.8z M293.4,75.4l-5.4,0.4l-5.4,0.4l-5.4,0.4l-5.4,0.4l-0.4-5.4
		l-5.4,0.4l-0.4-5.4l-5.4,0.4l-0.4-5.4l-5.4,0.4l-0.4-5.4l-0.4-5.4l-0.4-5.4l-0.4-5.4l5.4-0.4l-0.4-5.4l5.4-0.4l-0.4-5.4l-5.4,0.4
		l-5.4,0.4l-0.4-5.4l5.4-0.4l5.4-0.4l5.4-0.4l5.4-0.4l5.4-0.4l-0.4-5.4l5.4-0.4l5.4-0.4l5.4-0.4l5.4-0.4l-0.4-5.4l5.4-0.4l5.4-0.4
		l0.4,5.4l-5.4,0.4l0.4,5.4l-5.4,0.4l-5.4,0.4l0.4,5.4l-5.4,0.4l-5.4,0.4l0.4,5.4l0.4,5.4l0.4,5.4l0.4,5.4l0.4,5.4l0.4,5.4l0.4,5.4
		l0.4,5.4l5.4-0.4l5.4-0.4l-0.4-5.4l5.4-0.4l5.4-0.4l0.4,5.4l-5.4,0.4l0.4,5.4l-5.4,0.4L293.4,75.4z M274.4,44l-0.4-5.4l-0.4-5.4
		l5.4-0.4l-0.4-5.4l-5.4,0.4l-5.4,0.4l0.4,5.4l-5.4,0.4l0.4,5.4l0.4,5.4l5.4-0.4L274.4,44z M275.7,60.4l-0.4-5.4l-0.4-5.4l-5.4,0.4
		l-5.4,0.4l0.4,5.4l0.4,5.4l5.4-0.4l0.4,5.4l5.4-0.4L275.7,60.4z M308.4,57.8l5.4-0.4l0.4,5.4l-5.4,0.4L308.4,57.8z M313.4,51.9
		l-0.4-5.4l5.4-0.4l0.4,5.4l0.4,5.4l-5.4,0.4L313.4,51.9z"/>
	<path class="st0" d="M378.5,15.3l-5.5,0.3l-5.5,0.3l0.3,5.5l0.3,5.5l0.3,5.5l0.3,5.5l5.5-0.3l5.5-0.3l5.5-0.3l5.5-0.3l0.3,5.5
		l-5.5,0.3l-5.5,0.3l-5.5,0.3l-5.5,0.3l0.3,5.5l0.3,5.5l0.3,5.5l0.3,5.5l5.5-0.3l5.5-0.3l-0.3-5.5l5.5-0.3l0.3,5.5l5.5-0.3l0.3,5.5
		l-5.5,0.3l-5.5,0.3l-5.5,0.3l-5.5,0.3l-5.5,0.3l-5.5,0.3l-5.5,0.3l-0.3-5.5l-5.5,0.3l-0.3-5.5l-5.5,0.3l-0.3-5.5l-5.5,0.3l-0.3-5.5
		l-0.3-5.5l-0.3-5.5l-0.3-5.5l5.5-0.3l-0.3-5.5l-0.3-5.5l5.5-0.3l-0.3-5.5l5.5-0.3l0.3,5.5l0.3,5.5l-5.5,0.3l0.3,5.5l0.3,5.5
		l0.3,5.5l0.3,5.5l0.3,5.5l5.5-0.3l0.3,5.5l5.5-0.3l-0.3-5.5l-0.3-5.5l-0.3-5.5l-0.3-5.5l-0.3-5.5l-0.3-5.5l-0.3-5.5l-0.3-5.5
		l-0.3-5.5l5.5-0.3l5.5-0.3l5.5-0.3l5.5-0.3l5.5-0.3l-0.3-5.5l5.5-0.3l0.3,5.5l0.3,5.5l-5.5,0.3l0.3,5.5l-5.5,0.3L378.5,15.3z
		 M392.1,69.3l5.5-0.3l0.3,5.5l-5.5,0.3L392.1,69.3z"/>
	<path class="st0" d="M431.3,84.2l-0.1-5.5l-0.1-5.5l5.5-0.1l-0.1-5.5l-0.1-5.5l-5.5,0.1l-0.1-5.5l-0.1-5.5l-5.5,0.1l-0.1-5.5
		l-0.1-5.5l-0.1-5.5l-5.5,0.1l-0.1-5.5l-0.1-5.5l-5.5,0.1l-0.1-5.5l-0.1-5.5l-5.5,0.1l-0.1-5.5l5.5-0.1l5.5-0.1l0.1,5.5l5.5-0.1
		l5.5-0.1l-0.1-5.5l5.5-0.1l5.5-0.1l0.1,5.5l-5.5,0.1l0.1,5.5l-5.5,0.1l0.1,5.5l0.1,5.5l5.5-0.1l0.1,5.5l0.1,5.5l5.5-0.1l0.1,5.5
		l0.1,5.5l0.1,5.5l5.5-0.1l-0.1-5.5l-0.1-5.5l5.5-0.1l-0.1-5.5l-0.1-5.5l5.5-0.1l-0.1-5.5l-0.1-5.5l-0.1-5.5l-5.5,0.1l0.1,5.5
		l-5.5,0.1l-0.1-5.5l5.5-0.1l-0.1-5.5l5.5-0.1L457,7.3l5.5-0.1L468,7l5.5-0.1l5.5-0.1l0.1,5.5l0.1,5.5l-5.5,0.1l-5.5,0.1l0.1,5.5
		l0.1,5.5l-5.5,0.1l0.1,5.5l0.1,5.5l-5.5,0.1l0.1,5.5l0.1,5.5l-5.5,0.1l0.1,5.5l0.1,5.5l-5.5,0.1l0.1,5.5l0.1,5.5l-5.5,0.1l0.1,5.5
		l-5.5,0.1l0.1,5.5L431.3,84.2z M447.6,83.9l0.1,5.5l-5.5,0.1l-5.5,0.1l-0.1-5.5l5.5-0.1L447.6,83.9z M441,24l5.5-0.1l0.1,5.5
		l-5.5,0.1L441,24z M447.5,78.5l5.5-0.1l0.1,5.5l-5.5,0.1L447.5,78.5z M452.9,72.9l5.5-0.1l0.1,5.5l-5.5,0.1L452.9,72.9z
		 M458.2,67.3l5.5-0.1l0.1,5.5l-5.5,0.1L458.2,67.3z M478.8,1.4l5.5-0.1l0.1,5.5l-5.5,0.1L478.8,1.4z"/>
	<path class="st0" d="M546.8,12.4l-5.5-0.1l-5.5-0.1l-0.1,5.5l-0.1,5.5l-0.1,5.5l-0.1,5.5l5.5,0.1l5.5,0.1l5.5,0.1l5.5,0.1l-0.1,5.5
		l-5.5-0.1l-5.5-0.1l-5.5-0.1l-5.5-0.1l-0.1,5.5l-0.1,5.5l-0.1,5.5l-0.1,5.5l5.5,0.1l5.5,0.1l0.1-5.5l5.5,0.1l-0.1,5.5l5.5,0.1
		l-0.1,5.5l-5.5-0.1l-5.5-0.1l-5.5-0.1l-5.5-0.1l-5.5-0.1l-5.5-0.1l-5.5-0.1l0.1-5.5l-5.5-0.1l0.1-5.5l-5.5-0.1l0.1-5.5l-5.5-0.1
		l0.1-5.5l0.1-5.5l0.1-5.5l0.1-5.5l5.5,0.1l0.1-5.5l0.1-5.5l5.5,0.1l0.1-5.5l5.5,0.1l-0.1,5.5l-0.1,5.5l-5.5-0.1l-0.1,5.5l-0.1,5.5
		l-0.1,5.5l-0.1,5.5l-0.1,5.5l5.5,0.1l-0.1,5.5l5.5,0.1l0.1-5.5l0.1-5.5l0.1-5.5l0.1-5.5l0.1-5.5l0.1-5.5l0.1-5.5l0.1-5.5l0.1-5.5
		l5.5,0.1l5.5,0.1l5.5,0.1l5.5,0.1l5.5,0.1l0.1-5.5l5.5,0.1l-0.1,5.5l-0.1,5.5l-5.5-0.1l-0.1,5.5l-5.5-0.1L546.8,12.4z M557.1,67.2
		l5.5,0.1l-0.1,5.5l-5.5-0.1L557.1,67.2z"/>
	<path class="st0" d="M579.6,67.3l0.2-5.5l5.5,0.2l-0.2,5.5L579.6,67.3z M581.9,12.8l5.5,0.2l-0.2,5.5l-5.5-0.2L581.9,12.8z
		 M639.2,80.7l-5.5-0.2l0.2-5.5l5.5,0.2l0.2-5.5l-5.5-0.2l0.2-5.5l-5.5-0.2l0.2-5.5l-5.5-0.2l0.2-5.5l-5.5-0.2l0.2-5.5l-5.5-0.2
		l0.2-5.5l-5.5-0.2l-0.2,5.5l-0.2,5.5l-0.2,5.5l-0.2,5.5l5.5,0.2l-0.2,5.5l-5.5-0.2l-5.5-0.2L596,68l-0.2,5.5l-5.5-0.2l-5.5-0.2
		l0.2-5.5l5.5,0.2l0.2-5.5l5.5,0.2l0.2-5.5l0.2-5.5l0.2-5.5l0.2-5.5l0.2-5.5l0.2-5.5l0.2-5.5l0.2-5.5l0.2-5.5l-5.5-0.2l-5.5-0.2
		l0.2-5.5l5.5,0.2l0.2-5.5l5.5,0.2L598.5,8l5.5,0.2l-0.2,5.5l5.5,0.2l0.2-5.5l5.5,0.2l5.5,0.2l5.5,0.2l-0.2,5.5l5.5,0.2l-0.2,5.5
		l-0.2,5.5l-0.2,5.5l-5.5-0.2l-0.2,5.5l-5.5-0.2l-0.2,5.5l5.5,0.2l5.5,0.2l-0.2,5.5l5.5,0.2l-0.2,5.5l5.5,0.2l-0.2,5.5l5.5,0.2
		l-0.2,5.5l5.5,0.2l5.5,0.2l0.2-5.5l0.2-5.5l5.5,0.2l-0.2,5.5l-0.2,5.5l-0.2,5.5l-5.5-0.2l-0.2,5.5l-5.5-0.2l-0.2,5.5l-5.5-0.2
		L639.2,80.7z M619.6,25.3l5.5,0.2l0.2-5.5l-5.5-0.2l0.2-5.5l-5.5-0.2l-0.2,5.5l-5.5-0.2l-0.2,5.5l5.5,0.2l-0.2,5.5l5.5,0.2
		L619.6,25.3z M612.8,57.8l5.5,0.2l-0.2,5.5l-5.5-0.2L612.8,57.8z M651.2,53.9l-5.5-0.2l0.2-5.5l5.5,0.2l5.5,0.2l-0.2,5.5
		L651.2,53.9z"/>
	<path class="st0" d="M676.6,22.3l5.4,0.4l-0.4,5.4l-5.4-0.4L676.6,22.3z M716.5,74.6l-5.4-0.4l-5.4-0.4l-5.4-0.4l-5.4-0.4l0.4-5.4
		l-5.4-0.4l0.4-5.4l-5.4-0.4l0.4-5.4l-5.4-0.4l0.4-5.4l0.4-5.4l0.4-5.4l0.4-5.4l5.4,0.4l0.4-5.4l5.4,0.4l0.4-5.4l-5.4-0.4l-5.4-0.4
		l0.4-5.4l5.4,0.4l5.4,0.4l5.4,0.4l5.4,0.4l5.4,0.4l0.4-5.4l5.4,0.4l5.4,0.4l5.4,0.4l5.4,0.4l0.4-5.4l5.4,0.4l5.4,0.4l-0.4,5.4
		l-5.4-0.4l-0.4,5.4l-5.4-0.4l-5.4-0.4l-0.4,5.4l-5.4-0.4l-5.4-0.4l-0.4,5.4l-0.4,5.4l-0.4,5.4l-0.4,5.4l-0.4,5.4l-0.4,5.4l-0.4,5.4
		l-0.4,5.4l5.4,0.4l5.4,0.4l0.4-5.4l5.4,0.4l5.4,0.4l-0.4,5.4l-5.4-0.4l-0.4,5.4L722,75L716.5,74.6z M701.4,57l0.4-5.4l0.4-5.4
		l-5.4-0.4l-5.4-0.4l-0.4,5.4l-0.4,5.4l5.4,0.4l-0.4,5.4l5.4,0.4L701.4,57z M702.6,40.7l0.4-5.4l0.4-5.4l5.4,0.4l0.4-5.4l-5.4-0.4
		l-5.4-0.4l-0.4,5.4l-5.4-0.4l-0.4,5.4l-0.4,5.4l5.4,0.4L702.6,40.7z M734.1,59.5l5.4,0.4l-0.4,5.4l-5.4-0.4L734.1,59.5z
		 M739.9,54.4l0.4-5.4l5.4,0.4l-0.4,5.4l-0.4,5.4l-5.4-0.4L739.9,54.4z"/>
	<path class="st0" d="M781.9,85.7l0.6-5.4l-5.4-0.6l0.6-5.4l-5.4-0.6l0.6-5.4l0.6-5.4l-5.4-0.6l0.6-5.4l0.6-5.4l0.6-5.4l0.6-5.4
		l0.6-5.4l5.4,0.6l0.6-5.4l0.6-5.4l5.4,0.6l0.6-5.4l5.4,0.6l-0.6,5.4l-0.6,5.4L793,32l0.6-5.4l0.6-5.4l5.4,0.6l0.6-5.4l5.4,0.6
		l5.4,0.6l-0.6,5.4l-0.6,5.4l5.4,0.6l-0.6,5.4l5.4,0.6l-0.6,5.4l-0.6,5.4l5.4,0.6l-0.6,5.4l-0.6,5.4l-0.6,5.4l-0.6,5.4l-5.4-0.6
		l-0.6,5.4l-5.4-0.6l-0.6,5.4l-5.4-0.6l-0.6,5.4l-5.4-0.6l-5.4-0.6l-0.6,5.4l-5.4-0.6L781.9,85.7z M789.6,64.6l0.6-5.4l0.6-5.4
		l0.6-5.4l-5.4-0.6l-5.4-0.6l-0.6,5.4l-0.6,5.4l5.4,0.6l-0.6,5.4l-0.6,5.4L789,70L789.6,64.6z M791.9,42.8l0.6-5.4l-5.4-0.6
		l-5.4-0.6l-0.6,5.4l5.4,0.6L791.9,42.8z M799.9,71.1l5.4,0.6l0.6-5.4l5.4,0.6l0.6-5.4l0.6-5.4l0.6-5.4l0.6-5.4l-5.4-0.6l0.6-5.4
		l0.6-5.4l-5.4-0.6l0.6-5.4l-5.4-0.6l-0.6,5.4l-0.6,5.4l-0.6,5.4l-0.6,5.4l-0.6,5.4l-0.6,5.4l-0.6,5.4l-0.6,5.4l-0.6,5.4l5.4,0.6
		L799.9,71.1z"/>
	<path class="st0" d="M874.5,96.6l-5.4-0.7l0.7-5.4l-5.4-0.7l-0.7,5.4l-0.7,5.4l-5.4-0.7l0.7-5.4l-5.4-0.7l0.7-5.4l-5.4-0.7
		l-5.4-0.7l-5.4-0.7l-0.7,5.4l-5.4-0.7l0.7-5.4l5.4,0.7l0.7-5.4l5.4,0.7l0.7-5.4l5.4,0.7l0.7-5.4l0.7-5.4l-5.4-0.7l-5.4-0.7l0.7-5.4
		l5.4,0.7l5.4,0.7l0.7-5.4l0.7-5.4l-5.4-0.7l-5.4-0.7l0.7-5.4l5.4,0.7l5.4,0.7l0.7-5.4l-5.4-0.7l0.7-5.4l5.4,0.7l5.4,0.7l5.4,0.7
		l-0.7,5.4l-0.7,5.4l-0.7,5.4l-0.7,5.4l-0.7,5.4l-0.7,5.4l-0.7,5.4l-0.7,5.4l-0.7,5.4L859,89l5.4,0.7l0.7-5.4l5.4,0.7l0.7-5.4
		l0.7-5.4l0.7-5.4l0.7-5.4l0.7-5.4l0.7-5.4l0.7-5.4l0.7-5.4l-5.4-0.7l0.7-5.4l5.4,0.7l5.4,0.7l5.4,0.7l-0.7,5.4l-0.7,5.4l-0.7,5.4
		l-0.7,5.4l-0.7,5.4l-0.7,5.4l-0.7,5.4l-0.7,5.4l-0.7,5.4l-0.7,5.4l5.4,0.7l-0.7,5.4l-5.4-0.7l-0.7,5.4l-5.4-0.7L874.5,96.6z
		 M844.7,31.9l-5.4-0.7l0.7-5.4l5.4,0.7l5.4,0.7l-0.7,5.4L844.7,31.9z M866.4,34.9l0.7-5.4l5.4,0.7l-0.7,5.4L866.4,34.9z
		 M886.8,87.3l5.4,0.7l0.7-5.4l0.7-5.4l0.7-5.4l0.7-5.4l0.7-5.4l0.7-5.4l0.7-5.4l0.7-5.4l-5.4-0.7l0.7-5.4l5.4,0.7l0.7-5.4l5.4,0.7
		l5.4,0.7l-0.7,5.4l5.4,0.7l-0.7,5.4l-5.4-0.7l-0.7,5.4l-0.7,5.4l-0.7,5.4l-0.7,5.4l-0.7,5.4l-0.7,5.4l-0.7,5.4l5.4,0.7l-0.7,5.4
		l-5.4-0.7l-5.4-0.7l-0.7,5.4l-5.4-0.7l-5.4-0.7L886.8,87.3z M888,37.8l0.7-5.4l5.4,0.7l-0.7,5.4L888,37.8z"/>
	<path class="st0" d="M967.6,105.3l-5.4-0.9l0.9-5.4l0.9-5.4l-5.4-0.9l0.9-5.4l0.9-5.4l-5.4-0.9l0.9-5.4l-5.4-0.9l0.9-5.4l0.9-5.4
		L947,63l-0.9,5.4l-0.9,5.4l-0.9,5.4l-0.9,5.4l-0.9,5.4l-0.9,5.4l5.4,0.9l5.4,0.9l-0.9,5.4l-5.4-0.9l-5.4-0.9l-5.4-0.9l-5.4-0.9
		l-0.9,5.4l5.4,0.9l5.4,0.9l-0.9,5.4l-5.4-0.9l-5.4-0.9l-5.4-0.9l0.9-5.4l0.9-5.4l5.4,0.9l0.9-5.4l5.4,0.9l0.9-5.4l0.9-5.4l0.9-5.4
		l0.9-5.4l0.9-5.4l0.9-5.4l0.9-5.4l0.9-5.4l0.9-5.4l-5.4-0.9l0.9-5.4l-5.4-0.9l-5.4-0.9l0.9-5.4l5.4,0.9l5.4,0.9l5.4,0.9l5.4,0.9
		l5.4,0.9l-0.9,5.4l-0.9,5.4l5.4,0.9l-0.9,5.4l-0.9,5.4l5.4,0.9l-0.9,5.4l-0.9,5.4l5.4,0.9l-0.9,5.4l-0.9,5.4l5.4,0.9l0.9-5.4
		l0.9-5.4l0.9-5.4l0.9-5.4l0.9-5.4l-5.4-0.9l0.9-5.4l-5.4-0.9l0.9-5.4l5.4,0.9l5.4,0.9l5.4,0.9l5.4,0.9l0.9-5.4l5.4,0.9l5.4,0.9
		l-0.9,5.4l-5.4-0.9l-0.9,5.4l-5.4-0.9l-0.9,5.4l-5.4-0.9l-0.9,5.4l-0.9,5.4l-0.9,5.4l-0.9,5.4l-0.9,5.4l-0.9,5.4l-0.9,5.4l5.4,0.9
		l5.4,0.9l-0.9,5.4l-5.4-0.9l-0.9,5.4l-5.4-0.9l-0.9,5.4l-5.4-0.9L967.6,105.3z"/>
</g>
</svg>
