<?xml version="1.0" encoding="utf-8"?>
<!-- Generator: Adobe Illustrator 22.0.1, SVG Export Plug-In . SVG Version: 6.00 Build 0)  -->
<svg version="1.1" id="Layer_1" xmlns="http://www.w3.org/2000/svg" xmlns:xlink="http://www.w3.org/1999/xlink" x="0px" y="0px"
	 width="750px" height="700px" viewBox="0 0 750 700" style="enable-background:new 0 0 750 700;" xml:space="preserve">
<style type="text/css">
	.st0{fill:#4A74FF;}
</style>
<g>
	<g>
		<path class="st0" d="M53.6,55.4H0V1.8h53.6h53.6v53.6C107.2,55.4,53.6,55.4,53.6,55.4z M428.6,644.6H375V591h-53.6v53.6v53.6
			h-53.6v-53.6h-53.6V591h-53.6H107H53.6v53.6H0V591h53.6v-53.6h53.6v-53.6h53.6v-53.6v-53.6h-53.6H53.6V323h53.6h53.6v-53.6v-53.6
			h-53.6H53.6v-53.6h53.6h53.6v-53.6h-53.6V55.4h53.6h53.6H268V109v53.6v53.6v53.6v53.6V377v53.6v53.6v53.6v53.6h53.6v-53.6H375
			v-53.6v-53.6V377v-53.6v-53.6v-53.6v-53.6V109h-53.6V55.4H375h53.6h53.6V109v53.6v53.6v53.6v53.6V377v53.6v53.6v53.6v53.6h53.6
			V645h-53.6v53.6h-53.6L428.6,644.6L428.6,644.6z M267.9,55.4V1.8h53.6v53.6C321.5,55.4,267.9,55.4,267.9,55.4z M482.1,55.4V1.8
			h53.6v53.6C535.7,55.4,482.1,55.4,482.1,55.4z M535.7,537.5h53.6v-53.6v-53.6v-53.6v-53.6v-53.6v-53.6v-53.6v-53.6h-53.6V55.4
			h53.6V1.8h53.6h53.6v53.6H750V109h-53.6v53.6v53.6v53.6v53.6V377v53.6v53.6H750v53.6h-53.6h-53.6v53.6h-53.6h-53.6L535.7,537.5
			L535.7,537.5z"/>
	</g>
</g>
</svg>
