<?xml version="1.0" encoding="utf-8"?>
<!-- Generator: Adobe Illustrator 23.0.1, SVG Export Plug-In . SVG Version: 6.00 Build 0)  -->
<svg version="1.1" id="Layer_1" xmlns="http://www.w3.org/2000/svg" xmlns:xlink="http://www.w3.org/1999/xlink" x="0px" y="0px"
	 width="926px" height="120px" viewBox="0 0 926 120" style="enable-background:new 0 0 926 120;" xml:space="preserve">
<style type="text/css">
	.st0{fill:#FFFFFF;}
</style>
<g>
	<path class="st0" d="M6.9,53.6l-5.9,1l-1-5.9l5.9-1l5.9-1l1,5.9L6.9,53.6z M58.6,111.2l-5.9,1l-1-5.9l-5.9,1l1,5.9l1,5.9l-5.9,1
		l-1-5.9l-5.9,1l-1-5.9l-5.9,1l-5.9,1l-5.9,1l1,5.9l-5.9,1l-1-5.9l5.9-1l-1-5.9l5.9-1l-1-5.9l5.9-1l-1-5.9l-1-5.9l-5.9,1l-5.9,1
		l-1-5.9l5.9-1l5.9-1l-1-5.9l-1-5.9l-5.9,1l-5.9,1l-1-5.9l5.9-1l5.9-1l-1-5.9l-5.9,1l-1-5.9l5.9-1l5.9-1l5.9-1l1,5.9l1,5.9l1,5.9
		l1,5.9l1,5.9l1,5.9l1,5.9l1,5.9l1,5.9l1,5.9l5.9-1l-1-5.9l5.9-1l-1-5.9l-1-5.9l-1-5.9l-1-5.9l-1-5.9l-1-5.9l-1-5.9l-1-5.9l-5.9,1
		l-1-5.9l5.9-1l5.9-1l5.9-1l1,5.9l1,5.9l1,5.9l1,5.9l1,5.9l1,5.9l1,5.9l1,5.9l1,5.9l1,5.9l5.9-1l1,5.9l-5.9,1l1,5.9l-5.9,1
		L58.6,111.2z M30.3,49.7l-1-5.9l5.9-1l1,5.9L30.3,49.7z M53.8,45.8l-1-5.9l5.9-1l1,5.9L53.8,45.8z M68.4,97.6l5.9-1l-1-5.9l-1-5.9
		l-1-5.9l-1-5.9l-1-5.9l-1-5.9l-1-5.9l-1-5.9l-5.9,1l-1-5.9l5.9-1l-1-5.9l5.9-1l5.9-1l1,5.9l5.9-1l1,5.9l-5.9,1l1,5.9l1,5.9l1,5.9
		l1,5.9l1,5.9l1,5.9l1,5.9l5.9-1l1,5.9l-5.9,1l-5.9,1l1,5.9l-5.9,1l-5.9,1L68.4,97.6z"/>
	<path class="st0" d="M89,40l-0.8-5.9l5.9-0.8l0.8,5.9L89,40z M132.3,94.1l5.9-0.8l-0.8-5.9l5.9-0.8l-0.8-5.9l-0.8-5.9l-0.8-5.9
		l-0.8-5.9l-0.8-5.9l-5.9,0.8l-0.8-5.9l-5.9,0.8l0.8,5.9l-5.9,0.8l0.8,5.9l0.8,5.9l0.8,5.9l0.8,5.9l5.9-0.8l0.8,5.9l-5.9,0.8
		l0.8,5.9l-5.9,0.8l-5.9,0.8l-5.9,0.8l-5.9,0.8l-0.8-5.9l5.9-0.8l5.9-0.8l-0.8-5.9l-0.8-5.9l-0.8-5.9l-0.8-5.9l-0.8-5.9l-0.8-5.9
		l-0.8-5.9l-0.8-5.9l-5.9,0.8l-5.9,0.8l-0.8-5.9l5.9-0.8l5.9-0.8l-0.8-5.9l5.9-0.8l5.9-0.8l-0.8-5.9l5.9-0.8l5.9-0.8l5.9-0.8
		l0.8,5.9l-5.9,0.8l-5.9,0.8l0.8,5.9l-5.9,0.8l0.8,5.9l0.8,5.9l0.8,5.9l5.9-0.8l-0.8-5.9l5.9-0.8l-0.8-5.9l5.9-0.8l0.8,5.9l5.9-0.8
		l0.8,5.9l0.8,5.9l5.9-0.8l0.8,5.9l0.8,5.9l0.8,5.9l0.8,5.9L155,85l-5.9,0.8l0.8,5.9l-5.9,0.8l0.8,5.9l-5.9,0.8l-5.9,0.8L132.3,94.1
		z M127.2,100.8l5.9-0.8l0.8,5.9l-5.9,0.8L127.2,100.8z M129.1,70.5l-0.8-5.9l5.9-0.8l0.8,5.9l0.8,5.9l-5.9,0.8L129.1,70.5z
		 M135.3,27.7l5.9-0.8l0.8,5.9l-5.9,0.8L135.3,27.7z"/>
	<path class="st0" d="M213.2,84.4l-5.9,0.6l-5.9,0.6l-5.9,0.6l-0.6-5.9l5.9-0.6l5.9-0.6l-0.6-5.9l-0.6-5.9l-5.9,0.6l-0.6-5.9
		l-0.6-5.9l-5.9,0.6l-5.9,0.6l-5.9,0.6l0.6,5.9l0.6,5.9l0.6,5.9l0.6,5.9l5.9-0.6l0.6,5.9l-5.9,0.6l-5.9,0.6l-5.9,0.6l-5.9,0.6
		l0.6,5.9l5.9-0.6l0.6,5.9l-5.9,0.6l-5.9,0.6l-0.6-5.9l-0.6-5.9l5.9-0.6l-0.6-5.9l5.9-0.6l-0.6-5.9l-0.6-5.9l5.9-0.6l-0.6-5.9
		l-0.6-5.9l-0.6-5.9l5.9-0.6l-0.6-5.9l-0.6-5.9l-0.6-5.9l5.9-0.6l-0.6-5.9l-5.9,0.6l-5.9,0.6l0.6,5.9l-5.9,0.6l-0.6-5.9l5.9-0.6
		l-0.6-5.9l5.9-0.6l5.9-0.6l-0.6-5.9l5.9-0.6l5.9-0.6l0.6,5.9l0.6,5.9l0.6,5.9l5.9-0.6l0.6,5.9l0.6,5.9l0.6,5.9l5.9-0.6l0.6,5.9
		l0.6,5.9l0.6,5.9l5.9-0.6l0.6,5.9l0.6,5.9l5.9-0.6l0.6,5.9l-5.9,0.6l0.6,5.9l-5.9,0.6L213.2,84.4z M191.1,45l-0.6-5.9l-0.6-5.9
		l-5.9,0.6l0.6,5.9l0.6,5.9l0.6,5.9l5.9-0.6L191.1,45z M223.7,71.3l5.9-0.6l0.6,5.9l-5.9,0.6L223.7,71.3z"/>
	<path class="st0" d="M225.1,29.1l5.9-0.5l0.5,5.9l-5.9,0.5L225.1,29.1z M276.6,78.8l-5.9,0.5l-5.9,0.5l-5.9,0.5l-5.9,0.5l-0.5-5.9
		l-5.9,0.5l-0.5-5.9l-5.9,0.5l-0.5-5.9l-5.9,0.5l-0.5-5.9l-0.5-5.9l-0.5-5.9l-0.5-5.9l5.9-0.5l-0.5-5.9l5.9-0.5l-0.5-5.9l-5.9,0.5
		l-5.9,0.5l-0.5-5.9l5.9-0.5l5.9-0.5l5.9-0.5l5.9-0.5l5.9-0.5l-0.5-5.9l5.9-0.5l5.9-0.5l5.9-0.5l5.9-0.5L283,6.8l5.9-0.5l5.9-0.5
		l0.5,5.9l-5.9,0.5l0.5,5.9l-5.9,0.5l-5.9,0.5l0.5,5.9l-5.9,0.5l-5.9,0.5l0.5,5.9l0.5,5.9l0.5,5.9l0.5,5.9l0.5,5.9l0.5,5.9l0.5,5.9
		l0.5,5.9l5.9-0.5l5.9-0.5l-0.5-5.9l5.9-0.5l5.9-0.5l0.5,5.9l-5.9,0.5l0.5,5.9l-5.9,0.5L276.6,78.8z M256.1,44.6l-0.5-5.9l-0.5-5.9
		l5.9-0.5l-0.5-5.9l-5.9,0.5l-5.9,0.5l0.5,5.9l-5.9,0.5l0.5,5.9l0.5,5.9l5.9-0.5L256.1,44.6z M257.5,62.4l-0.5-5.9l-0.5-5.9
		l-5.9,0.5l-5.9,0.5l0.5,5.9l0.5,5.9l5.9-0.5l0.5,5.9l5.9-0.5L257.5,62.4z M293,59.6l5.9-0.5l0.5,5.9l-5.9,0.5L293,59.6z
		 M298.5,53.3l-0.5-5.9l5.9-0.5l0.5,5.9l0.5,5.9l-5.9,0.5L298.5,53.3z"/>
	<path class="st0" d="M355.1,14.5l-5.9,0.3l-5.9,0.3l0.3,5.9l0.3,5.9l0.3,5.9l0.3,5.9l5.9-0.3l5.9-0.3l5.9-0.3l5.9-0.3l0.3,5.9
		l-5.9,0.3l-5.9,0.3l-5.9,0.3l-5.9,0.3l0.3,5.9l0.3,5.9l0.3,5.9l0.3,5.9l5.9-0.3l5.9-0.3l-0.3-5.9l5.9-0.3l0.3,5.9l5.9-0.3l0.3,5.9
		l-5.9,0.3l-5.9,0.3l-5.9,0.3l-5.9,0.3l-5.9,0.3l-5.9,0.3l-5.9,0.3l-0.3-5.9l-5.9,0.3l-0.3-5.9l-5.9,0.3l-0.3-5.9l-5.9,0.3l-0.3-5.9
		l-0.3-5.9l-0.3-5.9l-0.3-5.9l5.9-0.3l-0.3-5.9l-0.3-5.9l5.9-0.3l-0.3-5.9l5.9-0.3l0.3,5.9l0.3,5.9l-5.9,0.3l0.3,5.9l0.3,5.9
		l0.3,5.9l0.3,5.9l0.3,5.9l5.9-0.3l0.3,5.9l5.9-0.3l-0.3-5.9l-0.3-5.9l-0.3-5.9l-0.3-5.9l-0.3-5.9l-0.3-5.9l-0.3-5.9l-0.3-5.9
		l-0.3-5.9l5.9-0.3l5.9-0.3l5.9-0.3l5.9-0.3l5.9-0.3l-0.3-5.9l5.9-0.3l0.3,5.9l0.3,5.9l-5.9,0.3l0.3,5.9l-5.9,0.3L355.1,14.5z
		 M369.8,73.3l5.9-0.3l0.3,5.9l-5.9,0.3L369.8,73.3z"/>
	<g>
		
			<rect x="450" y="0.1" transform="matrix(0.9999 -1.718765e-02 1.718765e-02 0.9999 1.500733e-02 7.7864)" class="st0" width="5.9" height="5.9"/>
		
			<rect x="408.9" y="24.5" transform="matrix(0.9999 -1.718765e-02 1.718765e-02 0.9999 -0.4116 7.0826)" class="st0" width="5.9" height="5.9"/>
		<polygon class="st0" points="450.1,6 444.1,6.1 438.2,6.2 432.3,6.3 426.3,6.4 426.4,12.4 420.5,12.5 420.6,18.4 426.5,18.3 
			426.6,24.3 426.7,30.2 426.8,36.1 420.9,36.2 421,42.2 421.1,48.1 415.2,48.2 415.3,54.2 415.4,60.1 409.4,60.2 409.3,54.3 
			409.2,48.3 409.1,42.4 403.2,42.5 403.1,36.5 403,30.6 397,30.7 396.9,24.8 396.8,18.8 402.8,18.7 402.7,12.8 408.6,12.7 
			408.5,6.8 402.6,6.9 396.6,7 396.7,12.9 390.8,13 384.9,13.1 384.8,7.2 378.8,7.3 372.9,7.4 373,13.3 378.9,13.2 379,19.1 
			379.1,25.1 385.1,25 385.2,30.9 385.3,36.9 391.2,36.8 391.3,42.7 391.4,48.6 391.5,54.6 397.5,54.5 397.6,60.4 397.7,66.3 
			403.6,66.2 403.7,72.2 403.8,78.1 409.7,78 415.7,77.9 415.6,72 415.5,66 421.4,65.9 421.3,60 421.2,54.1 427.1,54 427,48 
			426.9,42.1 432.9,42 432.8,36 432.7,30.1 438.6,30 438.5,24.1 438.4,18.1 444.3,18 450.3,17.9 450.2,12 		"/>
		
			<rect x="414.7" y="18.5" transform="matrix(0.9999 -1.718765e-02 1.718765e-02 0.9999 -0.3069 7.182)" class="st0" width="5.9" height="5.9"/>
	</g>
	<path class="st0" d="M503.9,12.3l-5.9-0.1l-5.9-0.1l-0.1,5.9l-0.1,5.9l-0.1,5.9l-0.1,5.9l5.9,0.1l5.9,0.1l5.9,0.1l5.9,0.1l-0.1,5.9
		l-5.9-0.1l-5.9-0.1l-5.9-0.1l-5.9-0.1l-0.1,5.9l-0.1,5.9l-0.1,5.9l-0.1,5.9l5.9,0.1l5.9,0.1l0.1-5.9l5.9,0.1l-0.1,5.9l5.9,0.1
		l-0.1,5.9l-5.9-0.1l-5.9-0.1l-5.9-0.1l-5.9-0.1l-5.9-0.1l-5.9-0.1l-5.9-0.1l0.1-5.9l-5.9-0.1l0.1-5.9l-5.9-0.1l0.1-5.9l-5.9-0.1
		l0.1-5.9l0.1-5.9l0.1-5.9l0.1-5.9l5.9,0.1l0.1-5.9l0.1-5.9l5.9,0.1l0.1-5.9l5.9,0.1l-0.1,5.9l-0.1,5.9l-5.9-0.1l-0.1,5.9l-0.1,5.9
		l-0.1,5.9l-0.1,5.9l-0.1,5.9l5.9,0.1l-0.1,5.9l5.9,0.1l0.1-5.9l0.1-5.9l0.1-5.9l0.1-5.9l0.1-5.9l0.1-5.9l0.1-5.9l0.1-5.9l0.1-5.9
		l5.9,0.1l5.9,0.1l5.9,0.1l5.9,0.1l5.9,0.1l0.1-5.9l5.9,0.1l-0.1,5.9l-0.1,5.9l-5.9-0.1l-0.1,5.9l-5.9-0.1L503.9,12.3z M515.1,71.8
		l5.9,0.1l-0.1,5.9l-5.9-0.1L515.1,71.8z"/>
	<path class="st0" d="M525.3,71.6l0.3-5.9l5.9,0.3l-0.3,5.9L525.3,71.6z M527.9,12.3l5.9,0.3l-0.3,5.9l-5.9-0.3L527.9,12.3z
		 M590,86.4l-5.9-0.3l0.3-5.9l5.9,0.3l0.3-5.9l-5.9-0.3l0.3-5.9l-5.9-0.3l0.3-5.9l-5.9-0.3l0.3-5.9l-5.9-0.3l0.3-5.9l-5.9-0.3
		l0.3-5.9l-5.9-0.3l-0.3,5.9l-0.3,5.9l-0.3,5.9l-0.3,5.9l5.9,0.3l-0.3,5.9l-5.9-0.3l-5.9-0.3l-5.9-0.3l-0.3,5.9l-5.9-0.3l-5.9-0.3
		l0.3-5.9l5.9,0.3l0.3-5.9l5.9,0.3l0.3-5.9l0.3-5.9l0.3-5.9l0.3-5.9l0.3-5.9l0.3-5.9l0.3-5.9l0.3-5.9l0.3-5.9l-5.9-0.3l-5.9-0.3
		l0.3-5.9l5.9,0.3l0.3-5.9l5.9,0.3l-0.3,5.9l5.9,0.3l-0.3,5.9l5.9,0.3l0.3-5.9l5.9,0.3l5.9,0.3l5.9,0.3l-0.3,5.9l5.9,0.3l-0.3,5.9
		l-0.3,5.9l-0.3,5.9l-5.9-0.3l-0.3,5.9l-5.9-0.3l-0.3,5.9L574,44l5.9,0.3l-0.3,5.9l5.9,0.3l-0.3,5.9l5.9,0.3l-0.3,5.9l5.9,0.3
		l-0.3,5.9l5.9,0.3l5.9,0.3l0.3-5.9l0.3-5.9l5.9,0.3l-0.3,5.9l-0.3,5.9l-0.3,5.9l-5.9-0.3l-0.3,5.9l-5.9-0.3l-0.3,5.9l-5.9-0.3
		L590,86.4z M568.9,26l5.9,0.3l0.3-5.9l-5.9-0.3l0.3-5.9l-5.9-0.3l-0.3,5.9l-5.9-0.3l-0.3,5.9l5.9,0.3l-0.3,5.9l5.9,0.3L568.9,26z
		 M561.4,61.3l5.9,0.3l-0.3,5.9l-5.9-0.3L561.4,61.3z M603.2,57.2l-5.9-0.3l0.3-5.9l5.9,0.3l5.9,0.3l-0.3,5.9L603.2,57.2z"/>
	<path class="st0" d="M616.7,22l5.9,0.5l-0.5,5.9l-5.9-0.5L616.7,22z M659.9,79l-5.9-0.5l-5.9-0.5l-5.9-0.5l-5.9-0.5l0.5-5.9
		l-5.9-0.5l0.5-5.9l-5.9-0.5l0.5-5.9l-5.9-0.5l0.5-5.9l0.5-5.9l0.5-5.9l0.5-5.9l5.9,0.5l0.5-5.9l5.9,0.5l0.5-5.9l-5.9-0.5l-5.9-0.5
		l0.5-5.9L629,17l5.9,0.5l5.9,0.5l5.9,0.5l5.9,0.5l0.5-5.9l5.9,0.5l5.9,0.5l5.9,0.5l5.9,0.5l0.5-5.9l5.9,0.5l5.9,0.5l-0.5,5.9
		l-5.9-0.5l-0.5,5.9l-5.9-0.5l-5.9-0.5l-0.5,5.9l-5.9-0.5l-5.9-0.5l-0.5,5.9l-0.5,5.9l-0.5,5.9l-0.5,5.9l-0.5,5.9l-0.5,5.9l-0.5,5.9
		l-0.5,5.9l5.9,0.5l5.9,0.5l0.5-5.9l5.9,0.5l5.9,0.5l-0.5,5.9l-5.9-0.5l-0.5,5.9l-5.9-0.5L659.9,79z M643.5,59.8l0.5-5.9l0.5-5.9
		l-5.9-0.5l-5.9-0.5l-0.5,5.9l-0.5,5.9l5.9,0.5l-0.5,5.9l5.9,0.5L643.5,59.8z M644.9,42.1l0.5-5.9l0.5-5.9l5.9,0.5l0.5-5.9l-5.9-0.5
		l-5.9-0.5l-0.5,5.9l-5.9-0.5l-0.5,5.9l-0.5,5.9l5.9,0.5L644.9,42.1z M679.1,62.6l5.9,0.5l-0.5,5.9l-5.9-0.5L679.1,62.6z
		 M685.4,57.1l0.5-5.9l5.9,0.5l-0.5,5.9l-0.5,5.9l-5.9-0.5L685.4,57.1z"/>
	<path class="st0" d="M716.8,90l0.6-5.9l-5.9-0.6l0.6-5.9l-5.9-0.6l0.6-5.9l0.6-5.9l-5.9-0.6l0.6-5.9l0.6-5.9l0.6-5.9l0.6-5.9
		l0.6-5.9l5.9,0.6l0.6-5.9l0.6-5.9l5.9,0.6l0.6-5.9l5.9,0.6l-0.6,5.9l-0.6,5.9l5.9,0.6l0.6-5.9l0.6-5.9l5.9,0.6l0.6-5.9l5.9,0.6
		l5.9,0.6l-0.6,5.9l-0.6,5.9l5.9,0.6l-0.6,5.9l5.9,0.6l-0.6,5.9l-0.6,5.9l5.9,0.6l-0.6,5.9l-0.6,5.9l-0.6,5.9l-0.6,5.9l-5.9-0.6
		l-0.6,5.9l-5.9-0.6l-0.6,5.9l-5.9-0.6l-0.6,5.9l-5.9-0.6l-5.9-0.6l-0.6,5.9l-5.9-0.6L716.8,90z M725.2,67l0.6-5.9l0.6-5.9l0.6-5.9
		l-5.9-0.6l-5.9-0.6l-0.6,5.9l-0.6,5.9l5.9,0.6l-0.6,5.9l-0.6,5.9l5.9,0.6L725.2,67z M727.8,43.4l0.6-5.9l-5.9-0.6l-5.9-0.6
		l-0.6,5.9l5.9,0.6L727.8,43.4z M736.4,74.2l5.9,0.6l0.6-5.9l5.9,0.6l0.6-5.9l0.6-5.9l0.6-5.9l0.6-5.9l-5.9-0.6l0.6-5.9l0.6-5.9
		l-5.9-0.6l0.6-5.9l-5.9-0.6l-0.6,5.9l-0.6,5.9l-0.6,5.9l-0.6,5.9l-0.6,5.9l-0.6,5.9l-0.6,5.9l-0.6,5.9l-0.6,5.9l5.9,0.6L736.4,74.2
		z"/>
	<path class="st0" d="M803.3,100.4l-5.9-0.8l0.8-5.9l-5.9-0.8l-0.8,5.9l-0.8,5.9l-5.9-0.8l0.8-5.9l-5.9-0.8l0.8-5.9l-5.9-0.8
		l-5.9-0.8l-5.9-0.8l-0.8,5.9l-5.9-0.8l0.8-5.9l5.9,0.8l0.8-5.9l5.9,0.8l0.8-5.9l5.9,0.8l0.8-5.9l0.8-5.9l-5.9-0.8l-5.9-0.8l0.8-5.9
		l5.9,0.8l5.9,0.8l0.8-5.9l0.8-5.9l-5.9-0.8l-5.9-0.8l0.8-5.9l5.9,0.8l5.9,0.8l0.8-5.9l-5.9-0.8l0.8-5.9l5.9,0.8l5.9,0.8l5.9,0.8
		l-0.8,5.9L793,45l-0.8,5.9l-0.8,5.9l-0.8,5.9l-0.8,5.9l-0.8,5.9l-0.8,5.9l-0.8,5.9l-0.8,5.9l5.9,0.8l0.8-5.9l5.9,0.8l0.8-5.9
		l0.8-5.9l0.8-5.9l0.8-5.9l0.8-5.9l0.8-5.9l0.8-5.9l0.8-5.9l-5.9-0.8l0.8-5.9l5.9,0.8l5.9,0.8l5.9,0.8l-0.8,5.9l-0.8,5.9l-0.8,5.9
		l-0.8,5.9l-0.8,5.9l-0.8,5.9l-0.8,5.9l-0.8,5.9l-0.8,5.9l-0.8,5.9l5.9,0.8l-0.8,5.9l-5.9-0.8l-0.8,5.9l-5.9-0.8L803.3,100.4z
		 M771.1,30l-5.9-0.8l0.8-5.9l5.9,0.8l5.9,0.8l-0.8,5.9L771.1,30z M794.7,33.2l0.8-5.9l5.9,0.8l-0.8,5.9L794.7,33.2z M816.7,90.2
		l5.9,0.8l0.8-5.9l0.8-5.9l0.8-5.9l0.8-5.9l0.8-5.9l0.8-5.9l0.8-5.9l0.8-5.9l-5.9-0.8l0.8-5.9l5.9,0.8l0.8-5.9l5.9,0.8l5.9,0.8
		l-0.8,5.9l5.9,0.8l-0.8,5.9l-5.9-0.8l-0.8,5.9l-0.8,5.9l-0.8,5.9l-0.8,5.9l-0.8,5.9l-0.8,5.9l-0.8,5.9l5.9,0.8l-0.8,5.9l-5.9-0.8
		l-5.9-0.8l-0.8,5.9l-5.9-0.8l-5.9-0.8L816.7,90.2z M818.2,36.5l0.8-5.9l5.9,0.8l-0.8,5.9L818.2,36.5z"/>
	<path class="st0" d="M890.5,107.9l-5.9-1l1-5.9l1-5.9l-5.9-1l1-5.9l1-5.9l-5.9-1l1-5.9l-5.9-1l1-5.9l1-5.9l-5.9-1l-1,5.9l-1,5.9
		l-1,5.9l-1,5.9l-1,5.9l-1,5.9l5.9,1l5.9,1l-1,5.9l-5.9-1l-5.9-1l-5.9-1l-5.9-1l-1,5.9l5.9,1l5.9,1l-1,5.9l-5.9-1l-5.9-1l-5.9-1
		l1-5.9l1-5.9l5.9,1l1-5.9l5.9,1l1-5.9l1-5.9l1-5.9l1-5.9l1-5.9l1-5.9l1-5.9l1-5.9l1-5.9l-5.9-1l1-5.9l-5.9-1l-5.9-1l1-5.9l5.9,1
		l5.9,1l5.9,1l5.9,1l5.9,1l-1,5.9l-1,5.9l5.9,1l-1,5.9l-1,5.9l5.9,1l-1,5.9l-1,5.9l5.9,1l-1,5.9l-1,5.9l5.9,1l1-5.9l1-5.9l1-5.9
		l1-5.9l1-5.9l-5.9-1l1-5.9l-5.9-1l1-5.9l5.9,1l5.9,1l5.9,1l5.9,1l1-5.9l5.9,1l5.9,1l-1,5.9l-5.9-1l-1,5.9l-5.9-1l-1,5.9l-5.9-1
		l-1,5.9l-1,5.9l-1,5.9l-1,5.9l-1,5.9l-1,5.9l-1,5.9l5.9,1l5.9,1l-1,5.9l-5.9-1l-1,5.9l-5.9-1l-1,5.9l-5.9-1L890.5,107.9z"/>
</g>
</svg>
