<?xml version="1.0" encoding="utf-8"?>
<!-- Generator: Adobe Illustrator 23.0.3, SVG Export Plug-In . SVG Version: 6.00 Build 0)  -->
<svg version="1.1" id="Layer_1" xmlns="http://www.w3.org/2000/svg" xmlns:xlink="http://www.w3.org/1999/xlink" x="0px" y="0px"
	 width="750px" height="650px" viewBox="0 0 750 650" style="enable-background:new 0 0 750 650;" xml:space="preserve">
<style type="text/css">
	.st0{fill:#4A74FF;}
	.st1{fill:#FF4D4D;}
</style>
<g>
	<g>
		<g>
			<path class="st0" d="M100,50H50V0h50h50v50H100z M450,600h-50v-50h-50v50v50h-50v-50h-50v-50h-50h-50h-50v50H50v-50h50v-50h50
				v-50h50v-50v-50h-50h-50v-50h50h50v-50v-50h-50h-50v-50h50h50v-50h-50V50h50h50h50v50v50v50v50v50v50v50v50v50v50h50v-50h50v-50
				v-50v-50v-50v-50v-50v-50v-50h-50V50h50h50h50v50v50v50v50v50v50v50v50v50v50h50v50h-50v50h-50V600z M300,50V0h50v50H300z
				 M500,50V0h50v50H500z M550,500h50v-50v-50v-50v-50v-50v-50v-50v-50h-50V50h50V0h50h50v50h50v50h-50v50v50v50v50v50v50v50h50v50
				h-50h-50v50h-50h-50V500z"/>
		</g>
	</g>
	<rect y="300" class="st1" width="50" height="50"/>
</g>
</svg>
